<?xml version="1.0" standalone="no"?>
<!DOCTYPE svg PUBLIC "-//W3C//DTD SVG 20010904//EN"
 "http://www.w3.org/TR/2001/REC-SVG-20010904/DTD/svg10.dtd">
<svg version="1.0" xmlns="http://www.w3.org/2000/svg"
 width="820.000000pt" height="820.000000pt" viewBox="0 0 820.000000 820.000000"
 preserveAspectRatio="xMidYMid meet">
<metadata>
Created by potrace 1.11, written by Peter Selinger 2001-2013
</metadata>
<g transform="translate(0.000000,820.000000) scale(0.100000,-0.100000)"
fill="#000000" stroke="none">
<path d="M4073 7653 c-10 -16 -23 -32 -29 -38 -20 -19 -144 -185 -144 -194 0
-5 -4 -11 -8 -13 -4 -1 -28 -32 -52 -68 -25 -36 -48 -66 -52 -68 -5 -2 -8 -8
-8 -13 0 -4 -17 -34 -39 -66 -108 -161 -241 -385 -322 -543 -24 -47 -46 -87
-49 -90 -3 -3 -6 -12 -8 -20 -2 -8 -8 -16 -13 -18 -5 -2 -9 -8 -9 -13 0 -5
-21 -53 -47 -107 -26 -53 -48 -99 -48 -102 -1 -3 -16 -36 -34 -75 -91 -196
-275 -710 -305 -855 -3 -14 -12 -54 -21 -90 -9 -36 -18 -74 -21 -85 -5 -26
-18 -90 -29 -137 -2 -12 -7 -40 -11 -62 -3 -22 -7 -43 -9 -46 -1 -3 -6 -27 -9
-55 -4 -27 -10 -66 -13 -85 -3 -19 -7 -45 -7 -57 -1 -12 -4 -24 -8 -28 -4 -4
-4 -13 -2 -20 3 -7 1 -16 -5 -19 -5 -4 -33 26 -61 66 -126 180 -181 257 -270
376 -88 117 -185 241 -236 302 -219 257 -294 339 -475 520 -180 180 -280 273
-429 400 -36 30 -67 57 -70 60 -24 24 -82 70 -90 70 -8 0 -25 -44 -34 -90 -3
-14 -9 -40 -15 -57 -5 -18 -8 -33 -5 -33 3 0 0 -8 -5 -19 -6 -10 -11 -34 -13
-52 -1 -19 -6 -40 -11 -46 -5 -7 -7 -13 -4 -13 3 0 2 -14 -3 -32 -5 -17 -12
-47 -15 -67 -3 -20 -7 -48 -10 -61 -3 -13 -7 -40 -10 -60 -3 -20 -7 -47 -10
-60 -7 -36 -16 -97 -19 -133 -2 -18 -6 -50 -10 -72 -4 -22 -9 -65 -11 -95 -2
-30 -7 -73 -9 -95 -15 -127 -21 -296 -20 -585 1 -341 5 -434 30 -630 4 -30 7
-72 8 -92 1 -21 3 -38 6 -38 3 0 7 -12 8 -27 3 -48 33 -214 42 -238 5 -13 7
-25 4 -28 -2 -2 0 -15 5 -29 5 -14 12 -40 15 -59 3 -19 11 -52 16 -74 6 -22
12 -47 14 -55 13 -51 29 -111 41 -147 8 -23 17 -52 19 -65 3 -13 14 -48 26
-78 12 -30 23 -62 25 -70 2 -8 11 -35 19 -59 9 -24 15 -45 13 -47 -1 -2 -12 2
-24 9 -12 7 -46 25 -75 41 -29 15 -61 35 -70 44 -10 8 -18 12 -18 8 0 -4 -12
1 -28 12 -31 22 -389 199 -412 204 -8 2 -17 6 -20 9 -17 18 -540 215 -540 202
0 -2 -8 1 -19 6 -16 9 -18 6 -15 -37 2 -26 3 -47 4 -47 2 0 19 -102 25 -145 1
-8 6 -31 10 -50 5 -19 9 -37 10 -40 0 -3 4 -21 8 -40 7 -33 11 -54 21 -98 6
-26 25 -97 43 -159 8 -29 16 -58 17 -65 5 -32 50 -164 59 -175 5 -7 7 -13 3
-13 -4 0 0 -13 9 -30 8 -16 15 -32 15 -35 -1 -6 34 -105 49 -140 5 -11 21 -46
35 -78 14 -32 26 -60 26 -64 0 -8 110 -227 157 -311 20 -37 66 -112 102 -167
36 -55 68 -104 70 -110 2 -5 8 -14 12 -20 5 -5 38 -48 75 -95 114 -147 230
-272 370 -396 36 -33 71 -64 78 -69 36 -34 241 -180 295 -212 35 -20 69 -42
75 -48 26 -23 319 -172 426 -216 41 -17 89 -37 105 -44 17 -7 48 -19 70 -25
22 -7 45 -16 50 -20 6 -3 30 -13 55 -20 25 -7 50 -16 55 -19 6 -3 12 -6 15 -6
3 -1 32 -10 65 -20 33 -11 65 -20 70 -21 6 0 17 -4 25 -7 18 -7 217 -58 245
-63 11 -2 43 -8 70 -14 28 -6 61 -13 75 -15 14 -2 52 -9 85 -15 56 -9 98 -15
170 -25 17 -2 30 -4 30 -5 0 -1 24 -3 53 -4 28 -2 52 0 52 4 0 11 -82 230
-110 295 -43 98 -43 97 -18 84 13 -7 29 -18 36 -26 7 -7 20 -13 28 -13 8 0 14
-4 14 -8 0 -8 78 -57 242 -154 103 -60 287 -160 289 -155 7 23 10 83 15 297 4
140 8 256 9 258 2 2 31 -36 66 -85 35 -48 67 -92 71 -98 4 -5 28 -37 52 -70
67 -91 110 -136 121 -128 11 8 135 166 168 213 9 14 33 45 52 70 19 25 40 55
47 68 19 37 24 26 23 -55 0 -43 3 -88 7 -100 4 -12 3 -25 -3 -28 -5 -4 -7 -11
-3 -16 3 -6 8 -78 10 -160 2 -83 6 -155 9 -160 5 -8 118 47 153 74 6 5 12 7
12 4 0 -6 326 189 410 246 59 40 70 37 46 -15 -30 -65 -125 -324 -126 -345 0
-3 102 6 135 11 20 4 66 10 135 21 19 2 45 7 56 9 12 2 37 7 55 10 30 5 55 10
159 32 66 13 295 76 366 99 43 15 84 28 89 29 6 2 17 6 25 9 8 4 42 16 75 28
33 11 79 29 102 40 24 10 45 19 47 19 2 0 25 10 52 22 27 12 51 23 54 23 16 3
206 100 208 107 2 4 10 8 17 8 16 0 161 86 269 159 38 25 76 51 84 56 22 14
36 25 147 114 110 88 236 206 310 291 26 30 59 69 74 85 30 34 89 108 111 140
92 134 160 238 160 246 0 5 3 9 8 9 4 0 12 10 17 23 15 31 59 111 65 117 7 7
81 157 128 260 63 138 185 474 207 570 2 8 4 15 5 15 1 0 3 7 5 15 1 8 11 44
20 80 9 36 18 72 20 80 2 8 9 38 15 65 6 28 14 61 16 75 2 14 7 36 10 50 4 14
8 34 9 45 2 11 8 52 15 90 6 39 13 86 15 107 l4 36 -72 -22 c-85 -27 -220 -74
-262 -91 -16 -7 -66 -27 -110 -45 -156 -63 -558 -256 -563 -271 -2 -5 -12 -9
-22 -9 -10 0 -20 -4 -22 -8 -1 -4 -25 -21 -53 -36 -27 -16 -69 -39 -91 -52
-44 -25 -59 -23 -44 6 25 46 141 420 154 497 4 18 10 43 15 56 6 14 13 44 16
68 4 24 9 47 11 51 2 4 7 26 10 50 3 24 9 59 14 78 5 19 12 58 16 85 3 28 7
59 9 70 18 123 28 210 42 385 10 123 10 676 0 805 -14 181 -17 210 -22 241 -2
17 -7 57 -10 90 -4 32 -9 73 -12 89 -2 17 -7 44 -9 60 -4 35 -8 62 -20 130 -4
28 -8 55 -9 60 -1 6 -4 26 -8 45 -4 19 -9 47 -12 63 -5 26 -9 45 -20 97 -4 14
-8 36 -11 50 -3 14 -14 59 -25 100 -11 41 -22 83 -24 94 -2 10 -6 21 -9 23 -5
5 -97 -63 -153 -113 -17 -16 -58 -51 -90 -79 -135 -116 -486 -462 -593 -584
-30 -35 -64 -73 -75 -85 -11 -12 -39 -45 -62 -72 -24 -27 -49 -56 -56 -64 -79
-89 -301 -374 -365 -467 -7 -10 -35 -49 -62 -88 -28 -38 -50 -73 -50 -77 0 -3
-6 -13 -13 -20 -7 -7 -35 -46 -62 -87 l-50 -74 -7 34 c-3 19 -9 52 -12 74 -2
22 -7 51 -9 65 -3 14 -8 43 -11 65 -3 22 -10 65 -16 95 -6 30 -13 67 -15 81
-2 14 -10 53 -19 85 -8 32 -17 70 -20 84 -9 46 -15 71 -21 90 -3 10 -8 27 -10
37 -2 10 -11 43 -20 73 -9 30 -18 62 -20 72 -10 44 -140 417 -161 464 -13 29
-24 56 -24 59 0 3 -8 25 -19 48 -10 23 -33 76 -51 117 -95 219 -258 531 -407
778 -13 20 -25 45 -29 55 -3 9 -10 17 -15 17 -5 0 -9 7 -9 15 0 8 -4 15 -10
15 -5 0 -10 5 -10 10 0 31 -393 580 -415 580 -3 0 -12 -12 -22 -27z"/>
</g>
</svg>
