<svg width="204.88" height="178.84" version="1.1" viewBox="0 0 204.87999 178.83586" xml:space="preserve" xmlns="http://www.w3.org/2000/svg"><defs><clipPath id="r"><path d="m1015.6 1082.5c-34.399 319.78-247.82 566.64-247.82 566.64s-214.06-247.59-247.98-568.05c28.828-45.86 56.121-95.704 79.945-149.22 86.762-194.88 106.79-391.4 109.86-509.12 33.707-49.863 58.18-78.183 58.18-78.183s23.964 27.723 57.101 76.562c2.914 117.54 22.735 314.98 109.9 510.74 24.07 54.062 51.691 104.38 80.82 150.62"/></clipPath><radialGradient id="i" cx="0" cy="0" r="1" gradientTransform="matrix(3.9306 -1119.9 -1119.9 -3.9306 760.22 1539.1)" gradientUnits="userSpaceOnUse"><stop stop-color="#66cef5" offset="0"/><stop stop-color="#66cef5" offset=".071081"/><stop stop-color="#7a1d90" offset="1"/></radialGradient><clipPath id="q"><path d="m1152.7 685.06c48.03 46.621 99.48 84.589 148.6 115.08 119.77 300.29 21.22 625.84 21.22 625.84s-170.39-126.86-306.91-343.46c3.02-28.04 4.68-56.61 4.68-85.641 0-249.32-120.92-465.94-195.4-575.73-1.668-66.953 2.176-108.01 2.176-108.01s51.562 24.238 122.27 72.707c33.648 76.675 97.867 196.8 203.37 299.21"/></clipPath><radialGradient id="h" cx="0" cy="0" r="1" gradientTransform="matrix(-503.33 -1120.7 -1120.7 503.33 1322.5 1426)" gradientUnits="userSpaceOnUse"><stop stop-color="#66cef5" offset="0"/><stop stop-color="#66cef5" offset=".071081"/><stop stop-color="#7641a4" offset="1"/></radialGradient><clipPath id="p"><path d="m1015.6 1082.5c-29.129-46.25-56.75-96.563-80.82-150.62-87.168-195.76-106.99-393.2-109.9-510.74 74.485 109.79 195.4 326.41 195.4 575.73 0 29.031-1.66 57.601-4.68 85.641"/></clipPath><radialGradient id="g" cx="0" cy="0" r="1" gradientTransform="matrix(-194.74 -671.67 -671.67 194.74 1015.6 1082.5)" gradientUnits="userSpaceOnUse"><stop stop-color="#66cef5" offset="0"/><stop stop-color="#66cef5" offset=".071081"/><stop stop-color="#782f9a" offset="1"/></radialGradient><clipPath id="o"><path d="m519.78 1081.1c-136.66 217.46-307.78 344.87-307.78 344.87s-98.203-324.31 20.496-624.12c49.977-30.769 102.48-69.277 151.42-116.8 106.43-103.32 170.86-224.69 204.26-301.29 69.175-47.09 119.27-70.625 119.27-70.625s3.883 41.718 2.129 109.63c-74.566 110.29-194.31 326.02-194.31 574.11 0 28.541 1.59 56.661 4.512 84.231"/></clipPath><radialGradient id="f" cx="0" cy="0" r="1" gradientTransform="matrix(510.83 -1127.8 -1127.8 -510.83 202.24 1429.1)" gradientUnits="userSpaceOnUse"><stop stop-color="#66cef5" offset="0"/><stop stop-color="#66cef5" offset=".071081"/><stop stop-color="#7641a4" offset="1"/></radialGradient><clipPath id="n"><path d="m519.78 1081.1c-2.922-27.57-4.512-55.69-4.512-84.231 0-248.09 119.75-463.82 194.31-574.11-3.063 117.73-23.094 314.24-109.86 509.12-23.824 53.511-51.117 103.36-79.945 149.22"/></clipPath><radialGradient id="e" cx="0" cy="0" r="1" gradientTransform="matrix(189.79 -658.34 -658.34 -189.79 519.79 1081.1)" gradientUnits="userSpaceOnUse"><stop stop-color="#66cef5" offset="0"/><stop stop-color="#66cef5" offset=".071081"/><stop stop-color="#782f9a" offset="1"/></radialGradient><clipPath id="m"><path d="m1301.3 800.14c-3.52-8.86-7.21-17.676-11.12-26.473-82.45-185.15-233.64-314.35-340.85-387.81-20.704-47.207-29.825-77.961-29.825-77.961s254.09 14.668 424.49 180.08c170.43 165.43 192.62 418.98 192.62 418.98s-110.12-29.129-235.32-106.81"/></clipPath><radialGradient id="d" cx="0" cy="0" r="1" gradientTransform="matrix(-617.13 -599.06 -599.06 617.13 1536.6 906.95)" gradientUnits="userSpaceOnUse"><stop stop-color="#66cef5" offset="0"/><stop stop-color="#66cef5" offset=".071081"/><stop stop-color="#7264b8" offset="1"/></radialGradient><clipPath id="l"><path d="m1290.2 773.66c3.91 8.797 7.6 17.613 11.12 26.473-49.12-30.489-100.57-68.457-148.6-115.08-105.5-102.4-169.72-222.53-203.37-299.21 107.21 73.464 258.4 202.66 340.85 387.81"/></clipPath><radialGradient id="c" cx="0" cy="0" r="1" gradientTransform="matrix(-344.58 -396.6 -396.6 344.58 1301.3 800.13)" gradientUnits="userSpaceOnUse"><stop stop-color="#66cef5" offset="0"/><stop stop-color="#66cef5" offset=".071081"/><stop stop-color="#782f9a" offset="1"/></radialGradient><clipPath id="k"><path d="m244.34 773.66c-4.164 9.383-8.106 18.77-11.84 28.191-124.02 76.387-232.5 105.09-232.5 105.09s22.188-253.55 192.61-418.98c170.41-165.41 424.5-180.08 424.5-180.08s-8.847 29.843-28.925 75.879c-107.36 73.117-260.63 203.01-343.84 389.89"/></clipPath><radialGradient id="b" cx="0" cy="0" r="1" gradientTransform="matrix(618.77 -609.52 -609.52 -618.77 -7.6e-6 906.95)" gradientUnits="userSpaceOnUse"><stop stop-color="#66cef5" offset="0"/><stop stop-color="#66cef5" offset=".071081"/><stop stop-color="#7264b8" offset="1"/></radialGradient><clipPath id="j"><path d="m383.92 685.06c-48.942 47.519-101.44 86.027-151.42 116.8 3.734-9.421 7.676-18.808 11.84-28.191 83.215-186.89 236.49-316.78 343.84-389.89-33.399 76.601-97.829 197.97-204.26 301.29"/></clipPath><radialGradient id="a" cx="0" cy="0" r="1" gradientTransform="matrix(355.69 -418.08 -418.08 -355.69 232.5 801.86)" gradientUnits="userSpaceOnUse"><stop stop-color="#66cef5" offset="0"/><stop stop-color="#66cef5" offset=".071081"/><stop stop-color="#782f9a" offset="1"/></radialGradient></defs><g transform="matrix(1.3333 0 0 -1.3333 0 219.89)"><g transform="scale(.1)"><g clip-path="url(#r)"><path d="m1015.6 1082.5c-34.399 319.78-247.82 566.64-247.82 566.64s-214.06-247.59-247.98-568.05c28.828-45.86 56.121-95.704 79.945-149.22 86.762-194.88 106.79-391.4 109.86-509.12 33.707-49.863 58.18-78.183 58.18-78.183s23.964 27.723 57.101 76.562c2.914 117.54 22.735 314.98 109.9 510.74 24.07 54.062 51.691 104.38 80.82 150.62" fill="url(#i)"/></g><g clip-path="url(#q)"><path d="m1152.7 685.06c48.03 46.621 99.48 84.589 148.6 115.08 119.77 300.29 21.22 625.84 21.22 625.84s-170.39-126.86-306.91-343.46c3.02-28.04 4.68-56.61 4.68-85.641 0-249.32-120.92-465.94-195.4-575.73-1.668-66.953 2.176-108.01 2.176-108.01s51.562 24.238 122.27 72.707c33.648 76.675 97.867 196.8 203.37 299.21" fill="url(#h)"/></g><g clip-path="url(#p)"><path d="m1015.6 1082.5c-29.129-46.25-56.75-96.563-80.82-150.62-87.168-195.76-106.99-393.2-109.9-510.74 74.485 109.79 195.4 326.41 195.4 575.73 0 29.031-1.66 57.601-4.68 85.641" fill="url(#g)"/></g><g clip-path="url(#o)"><path d="m519.78 1081.1c-136.66 217.46-307.78 344.87-307.78 344.87s-98.203-324.31 20.496-624.12c49.977-30.769 102.48-69.277 151.42-116.8 106.43-103.32 170.86-224.69 204.26-301.29 69.175-47.09 119.27-70.625 119.27-70.625s3.883 41.718 2.129 109.63c-74.566 110.29-194.31 326.02-194.31 574.11 0 28.541 1.59 56.661 4.512 84.231" fill="url(#f)"/></g><g clip-path="url(#n)"><path d="m519.78 1081.1c-2.922-27.57-4.512-55.69-4.512-84.231 0-248.09 119.75-463.82 194.31-574.11-3.063 117.73-23.094 314.24-109.86 509.12-23.824 53.511-51.117 103.36-79.945 149.22" fill="url(#e)"/></g><g clip-path="url(#m)"><path d="m1301.3 800.14c-3.52-8.86-7.21-17.676-11.12-26.473-82.45-185.15-233.64-314.35-340.85-387.81-20.704-47.207-29.825-77.961-29.825-77.961s254.09 14.668 424.49 180.08c170.43 165.43 192.62 418.98 192.62 418.98s-110.12-29.129-235.32-106.81" fill="url(#d)"/></g><g clip-path="url(#l)"><path d="m1290.2 773.66c3.91 8.797 7.6 17.613 11.12 26.473-49.12-30.489-100.57-68.457-148.6-115.08-105.5-102.4-169.72-222.53-203.37-299.21 107.21 73.464 258.4 202.66 340.85 387.81" fill="url(#c)"/></g><g clip-path="url(#k)"><path d="m244.34 773.66c-4.164 9.383-8.106 18.77-11.84 28.191-124.02 76.387-232.5 105.09-232.5 105.09s22.188-253.55 192.61-418.98c170.41-165.41 424.5-180.08 424.5-180.08s-8.847 29.843-28.925 75.879c-107.36 73.117-260.63 203.01-343.84 389.89" fill="url(#b)"/></g><g clip-path="url(#j)"><path d="m383.92 685.06c-48.942 47.519-101.44 86.027-151.42 116.8 3.734-9.421 7.676-18.808 11.84-28.191 83.215-186.89 236.49-316.78 343.84-389.89-33.399 76.601-97.829 197.97-204.26 301.29" fill="url(#a)"/></g></g></g></svg>
