<svg width="204.88" height="178.84" version="1.1" viewBox="0 0 204.87999 178.83586" xml:space="preserve" xmlns="http://www.w3.org/2000/svg" xmlns:xlink="http://www.w3.org/1999/xlink"><defs><clipPath id="h"><path d="m1152.7 685.06c48.03 46.621 99.48 84.589 148.6 115.08 119.77 300.29 21.22 625.84 21.22 625.84s-170.39-126.86-306.91-343.46c3.02-28.04 4.68-56.61 4.68-85.641 0-249.32-120.92-465.94-195.4-575.73-1.668-66.953 2.176-108.01 2.176-108.01s51.562 24.238 122.27 72.707c33.648 76.675 97.867 196.8 203.37 299.21"/></clipPath><clipPath id="g"><path d="m1015.6 1082.5c-29.129-46.25-56.75-96.563-80.82-150.62-87.168-195.76-106.99-393.2-109.9-510.74 74.485 109.79 195.4 326.41 195.4 575.73 0 29.031-1.66 57.601-4.68 85.641"/></clipPath><clipPath id="f"><path d="m519.78 1081.1c-136.66 217.46-307.78 344.87-307.78 344.87s-98.203-324.31 20.496-624.12c49.977-30.769 102.48-69.277 151.42-116.8 106.43-103.32 170.86-224.69 204.26-301.29 69.175-47.09 119.27-70.625 119.27-70.625s3.883 41.718 2.129 109.63c-74.566 110.29-194.31 326.02-194.31 574.11 0 28.541 1.59 56.661 4.512 84.231"/></clipPath><clipPath id="e"><path d="m519.78 1081.1c-2.922-27.57-4.512-55.69-4.512-84.231 0-248.09 119.75-463.82 194.31-574.11-3.063 117.73-23.094 314.24-109.86 509.12-23.824 53.511-51.117 103.36-79.945 149.22"/></clipPath><clipPath id="d"><path d="m1301.3 800.14c-3.52-8.86-7.21-17.676-11.12-26.473-82.45-185.15-233.64-314.35-340.85-387.81-20.704-47.207-29.825-77.961-29.825-77.961s254.09 14.668 424.49 180.08c170.43 165.43 192.62 418.98 192.62 418.98s-110.12-29.129-235.32-106.81"/></clipPath><clipPath id="c"><path d="m1290.2 773.66c3.91 8.797 7.6 17.613 11.12 26.473-49.12-30.489-100.57-68.457-148.6-115.08-105.5-102.4-169.72-222.53-203.37-299.21 107.21 73.464 258.4 202.66 340.85 387.81"/></clipPath><clipPath id="b"><path d="m244.34 773.66c-4.164 9.383-8.106 18.77-11.84 28.191-124.02 76.387-232.5 105.09-232.5 105.09s22.188-253.55 192.61-418.98c170.41-165.41 424.5-180.08 424.5-180.08s-8.847 29.843-28.925 75.879c-107.36 73.117-260.63 203.01-343.84 389.89"/></clipPath><clipPath id="a"><path d="m383.92 685.06c-48.942 47.519-101.44 86.027-151.42 116.8 3.734-9.421 7.676-18.808 11.84-28.191 83.215-186.89 236.49-316.78 343.84-389.89-33.399 76.601-97.829 197.97-204.26 301.29"/></clipPath></defs><g transform="matrix(1.3333 0 0 -1.3333 0 219.89)" fill="#fff"><g transform="scale(.1)" stroke="#000" stroke-width="15"><g clip-path="url(#h)" fill="#fff" stroke="#000" stroke-width="15"><path d="m1152.7 685.06c48.03 46.621 99.48 84.589 148.6 115.08 119.77 300.29 21.22 625.84 21.22 625.84s-170.39-126.86-306.91-343.46c3.02-28.04 4.68-56.61 4.68-85.641 0-249.32-120.92-465.94-195.4-575.73-1.668-66.953 2.176-108.01 2.176-108.01s51.562 24.238 122.27 72.707c33.648 76.675 97.867 196.8 203.37 299.21" fill="#fff" stroke="#000" stroke-width="15"/></g></g><g transform="scale(.1)"><g clip-path="url(#g)" fill="#fff"><path d="m1015.6 1082.5c-29.129-46.25-56.75-96.563-80.82-150.62-87.168-195.76-106.99-393.2-109.9-510.74 74.485 109.79 195.4 326.41 195.4 575.73 0 29.031-1.66 57.601-4.68 85.641" fill="#fff"/></g></g><g transform="scale(.1)" stroke="#000" stroke-width="15"><g clip-path="url(#f)" fill="#fff" stroke="#000" stroke-width="15"><path d="m519.78 1081.1c-136.66 217.46-307.78 344.87-307.78 344.87s-98.203-324.31 20.496-624.12c49.977-30.769 102.48-69.277 151.42-116.8 106.43-103.32 170.86-224.69 204.26-301.29 69.175-47.09 119.27-70.625 119.27-70.625s3.883 41.718 2.129 109.63c-74.566 110.29-194.31 326.02-194.31 574.11 0 28.541 1.59 56.661 4.512 84.231" fill="#fff" stroke="#000" stroke-width="15"/></g></g><g transform="scale(.1)" clip-path="url(#e)"><path d="m519.78 1081.1c-2.922-27.57-4.512-55.69-4.512-84.231 0-248.09 119.75-463.82 194.31-574.11-3.063 117.73-23.094 314.24-109.86 509.12-23.824 53.511-51.117 103.36-79.945 149.22" fill="#fff"/></g><g stroke="#000" stroke-width="15"><g transform="scale(.1)"><g clip-path="url(#d)" fill="#fff" stroke="#000" stroke-width="15"><path d="m1301.3 800.14c-3.52-8.86-7.21-17.676-11.12-26.473-82.45-185.15-233.64-314.35-340.85-387.81-20.704-47.207-29.825-77.961-29.825-77.961s254.09 14.668 424.49 180.08c170.43 165.43 192.62 418.98 192.62 418.98s-110.12-29.129-235.32-106.81" fill="#fff" stroke="#000" stroke-width="15"/></g></g><g transform="scale(.1)"><g clip-path="url(#c)" fill="#fff" stroke="#000" stroke-width="15"><path d="m1290.2 773.66c3.91 8.797 7.6 17.613 11.12 26.473-49.12-30.489-100.57-68.457-148.6-115.08-105.5-102.4-169.72-222.53-203.37-299.21 107.21 73.464 258.4 202.66 340.85 387.81" fill="#fff" stroke="none"/></g></g><g transform="scale(.1)"><g clip-path="url(#b)" fill="#fff" stroke="#000" stroke-width="15"><path d="m244.34 773.66c-4.164 9.383-8.106 18.77-11.84 28.191-124.02 76.387-232.5 105.09-232.5 105.09s22.188-253.55 192.61-418.98c170.41-165.41 424.5-180.08 424.5-180.08s-8.847 29.843-28.925 75.879c-107.36 73.117-260.63 203.01-343.84 389.89" fill="#fff" stroke="#000" stroke-width="15"/></g></g></g><g transform="scale(.1)"><g clip-path="url(#a)" fill="#fff"><path d="m383.92 685.06c-48.942 47.519-101.44 86.027-151.42 116.8 3.734-9.421 7.676-18.808 11.84-28.191 83.215-186.89 236.49-316.78 343.84-389.89-33.399 76.601-97.829 197.97-204.26 301.29" fill="#fff"/></g></g><path d="m101.56 108.25c-3.4399 31.978-24.782 56.664-24.782 56.664s-21.406-24.759-24.798-56.805c2.8828-4.586 5.6121-9.5704 7.9945-14.922 8.6762-19.488 10.679-39.14 10.986-50.912 3.3707-4.9863 5.818-7.8183 5.818-7.8183s2.3964 2.7723 5.7101 7.6562c.2914 11.754 2.2735 31.498 10.99 51.074 2.407 5.4062 5.1691 10.438 8.082 15.062" stroke="#000" stroke-width=".75"/></g></svg>
